{"title":"18.Years.Old.Elaina.Raye.stuffed.by.her.mans.big.cock.XXX.wmv","uid":10615375,"size":343871415,"categoryP":"porn","categoryS":"movies","magnet":"?xt=urn:btih:8c465a50a1ebfd58821b4d483624afd06a913656&amp;dn=18.Years.Old.Elaina.Raye.stuffed.by.her.mans.big.cock.XXX.wmv&amp;tr=udp%3A%2F%2Ftracker.openbittorrent.com%3A80&amp;tr=udp%3A%2F%2Fopen.demonii.com%3A1337&amp;tr=udp%3A%2F%2Ftracker.coppersurfer.tk%3A6969&amp;tr=udp%3A%2F%2Fexodus.desync.com%3A6969","seeders":1,"leechers":0,"uploader":"XXXmegathor","files":1,"time":1406106947,"description":"18.Years.Old.Elaina.Raye.stuffed.by.her.mans.big.cock.XXX\n\nSCREENIES &lt;a href=&quot;\nhttp://www.xxxtrapics.com/image/Mm&quot; rel=&quot;nofollow&quot; target=&quot;_NEW&quot;&gt;\nhttp://www.xxxtrapics.com/image/Mm&lt;/a&gt;\n\n\nDuration : 17mn 17s\nBit rate mode : Constant\nBit rate : 2 500 Kbps\nWidth : 1 280 pixels\nHeight : 720 pixels\nDisplay aspect ratio : 16:9\nFrame rate : 23.976 fps\nNominal frame rate : 29.970 fps\nBit depth : 8 bits\nScan type : Progressive\nCompression mode : Lossy\nBits/(Pixel*Frame) : 0.113\nStream size : 309 MiB (94%)\n\nAudio\nID : 1\nFormat : WMA\nFormat version : Version 2\nCodec ID : 161\nCodec ID/Info : Windows Media Audio\nDescription of the codec : Windows Media Audio 9.2 - 128 kbps, 44 kHz, stereo 2-pass CBR\nDuration : 17mn 17s\nBit rate mode : Constant\nBit rate : 128 Kbps\nChannel(s) : 2 channels\nSampling rate : 44.1 KHz\nBit depth : 16 bits\nStream size : 15.8 MiB (5%)","torrent":{"xt":"urn:btih:8c465a50a1ebfd58821b4d483624afd06a913656","amp;dn":"18.Years.Old.Elaina.Raye.stuffed.by.her.mans.big.cock.XXX.wmv","amp;tr":["udp%3A%2F%2Ftracker.openbittorrent.com%3A80","udp%3A%2F%2Fopen.demonii.com%3A1337","udp%3A%2F%2Ftracker.coppersurfer.tk%3A6969","udp%3A%2F%2Fexodus.desync.com%3A6969"],"infoHash":"8c465a50a1ebfd58821b4d483624afd06a913656","infoHashBuffer":{"type":"Buffer","data":[140,70,90,80,161,235,253,88,130,27,77,72,54,36,175,208,106,145,54,86]},"announce":[],"urlList":[]}}